<svg xmlns="http://www.w3.org/2000/svg" viewBox="0 0 300 300"><defs><style>.cls-1{fill:none;stroke:#000;stroke-linecap:round;stroke-linejoin:round;stroke-width:4px;}</style></defs><path class="cls-1" d="M157.13,278.38c9.06,1.55,17.64-.25,26.28-2.33,10-2.41,19.66-5.21,28.63-9.42a144.73,144.73,0,0,0,26.14-15.2,156.82,156.82,0,0,0,22.57-20.27,115.67,115.67,0,0,0,16.88-25.41c4.49-9,6.29-19.16,8.86-29,2.9-11.13,6-22.5,5.85-34.24-0.1-10-3.05-19.53-5.33-29s-4.71-19-9.26-27.85c-6-11.71-12.83-22.84-21.44-32.36S237.3,36,225.9,29.21c-8.5-5.08-16.8-10.66-26-13.93s-18.79-4.21-28.6-5.76c-14.4-2.28-29.23-4.1-43.46-2A145.19,145.19,0,0,0,100,14.79C91.08,18,82.91,23.22,74.61,28.17c-10.22,6.1-20,12.62-28.14,20.78S30.58,66.23,24.7,76.55C17,90,12.3,105.34,9.68,120.87c-2.31,13.67-1.21,27.37.82,41,1.4,9.37,2.72,18.6,6.08,27.28s8.76,16.3,13.85,24.29c6.28,9.86,13,19.08,21.56,27.08,1.22,1.14,2,3.47,3.49,4.84"/><path class="cls-1" d="M85.54,210.13c-2.86-15.06-14-23.11-27.23-28.06-11.9-4.46-26,4.83-25.63,16.46,0.16,5.28,2.8,9.34,7.3,12.55,6.68,4.77,13,10,15.48,18.46,1.16,4,2.42,7.08.93,11.94-2.73,8.89-1.59,18.61,1.6,27.37,3.13,8.57,7.94,16.46,16.79,20.69,11.13,5.31,28.85,4.82,38.2-5.07a19,19,0,0,1,9.1-5.77c1.13-.29,2.2-0.21,2.41,1.33"/><path class="cls-1" d="M196.95,80.83c-2.55-6.37-4.75-7.9-9.6-12.1-4.7-4.08-11.32-2.33-16.39-.38-7.51,2.89-12.08,10-16.69,16.35-6.2,8.49-9.44,18.53-12.75,28.32-2.69,7.93-2.19,16.51-1.23,25,0.69,6.08,1,12.23,3.79,17.75,4.32,8.61,15.52,14.47,24.45,8.29,14.46-10,24.4-23.07,28.8-40.56,2-7.82,3.75-15.42,3.37-23.46C200.51,96,199.85,87.12,196.95,80.83Z"/><path class="cls-1" d="M199.41,47.59c-1.17-1.67-2.35-3.31-3.62-4.9-6.7-8.38-15.05-9.64-23.85-3.29-7.4,5.34-12.07,12.85-16.66,20.47-5.16,8.57-8,18.16-12,27.24"/><path class="cls-1" d="M133.16,221.37c2.8-9.28,10.34-12.9,18.47-16.08a38.93,38.93,0,0,1,8.9-2.22c6.49-.89,11.58-4.49,14.05-10,2-4.43,0-9.35-3.42-13.2a28.55,28.55,0,0,0-19.6-9.7,57.51,57.51,0,0,0-33.65,7.38c-9.72,5.4-18.31,13.28-25.62,23.33-2.83,3.89-5.89,7.57-7.52,12.26"/><path class="cls-1" d="M120,223.82c15.79-4.24,29.57-.83,40.5,11.74,8.18,9.41,8.46,24.62-1.4,33.09"/><path class="cls-1" d="M183.5,66.67c-4.17,5-8.39,10.3-10.62,15.27-3.75,8.35-5,22.63-.12,29.26,5.31,7.27,14.1,4.5,20.26.82,2.27-1.35,4.85-4.56,7.65-6.93"/><path class="cls-1" d="M124.55,254.56c11.86-7,29.69-2.87,34.29,13a14.28,14.28,0,0,1-3.63,13.64c-9.48,9.73-27.47,12.91-40.55,1.73"/><path class="cls-1" d="M191.55,24.45c-10-4.69-22.4-4-29.48,7.59"/><path class="cls-1" d="M104.17,131.89c5.87,6.94,10.94,14.66,14,23.29-8.41-2.62-18.14-7.3-26.6-9.92-14.42-4.46-28.54-3.89-43-1.4-2.57.44-5.12,0.6-7.48,1.81"/><path class="cls-1" d="M207,147.51c-7.23-1.11-16.42.44-23.24,2.79"/><path class="cls-1" d="M175.36,193A45.56,45.56,0,0,1,195,203"/><path class="cls-1" d="M35.12,170.7a114.76,114.76,0,0,1,28.42-10.07c10-2.15,20.08-3.6,30.47-2.9A88.75,88.75,0,0,1,116.52,162c2.28,0.77,3,1.76,2.81,4"/><path class="cls-1" d="M73.06,150.64c-6.24,2-11.7,4.42-16.3,10.14a15.7,15.7,0,0,0-1.31,1.88c3.95,2.65,8.11,5.48,12,8,3.2,2,6.29,4.36,9.46,6.53"/><path class="cls-1" d="M117,245c5.36-.56,8.44,3.32,10,8.22"/><path class="cls-1" d="M62.53,229.53c-1.91,1.73-2.76,4.31-5.14,7.06"/></svg>
