<svg xmlns="http://www.w3.org/2000/svg" viewBox="-30 -30 300 300"><defs><style>.cls-1{fill:none;stroke:#000;stroke-linecap:round;stroke-linejoin:round;stroke-width:2px;}</style></defs><path class="cls-1" d="M146.28,69.12c2.54-5.42,1.72-11.39-5.07-12.33-7.15-1-14,0-21.13.63a89.36,89.36,0,0,1-9.85.41c-3.57-.07-7.13-0.87-10.7-0.83-3.14,0-6.26,1.62-7.4,4.7-1.27,3.41.86,6,3,8.36"/><path class="cls-1" d="M99.36,129.36c-2.76.06-7.45-.9-8.62,2.44-0.63,1.81-.31,4.27-0.28,6.16,0,2.49.07,5,0,7.45-0.31,7.48-.9,14.58,3.15,21.26a31.47,31.47,0,0,0,3.23,4.27c1.18,1.37,3.07,2.88,3.56,4.68s0.11,2.46,1.65,3.8c1.38,1.2,2.42,2,2.79,3.92,0.33,1.71-.58,3.49-0.2,5.13,0.41,1.79,1.48,1.74,1,3.68-0.28,1.24,0,1.21.11,2.38a2.57,2.57,0,0,1-.13,1.69c-0.34,1.43-.5.79-0.11,2.26a4.4,4.4,0,0,1,.23,2.42,2,2,0,0,0,.35,1.92,12.67,12.67,0,0,1,.84,2,4.66,4.66,0,0,0,2.44,2.46,21.22,21.22,0,0,1,4.23,2.38c1.29,1.13,2.08,2.6,3.89,2.94a13.9,13.9,0,0,0,5,0c1.57-.42,2.5-1.77,3.83-2.65,2.28-1.5,7.15-3.17,7.65-6.33,0.14-.9-0.43-1.44-0.45-2.24,0-1.13.49-.82,0.65-1.79,0.23-1.39-.41-2.55-0.28-3.93,0.06-.67.57-1,0.53-1.7s-0.73-1.13-.8-1.79c-0.1-1,.59-1.1,1-1.89,0.63-1.38-.34-1.54-0.34-2.69,0-.44.69-1.56,0.77-2.14,0.11-.77,0-1.55.16-2.31a6.31,6.31,0,0,1,2-3.35,10.39,10.39,0,0,0,2.39-3.27c0.58-1.84.48-3.13,1.86-4.73,2.94-3.41,5.81-5.95,6.73-10.57a69.07,69.07,0,0,0,.92-13.89c0-2.41,0-4.79.14-7.19,0.15-2.14.63-4.6,0.25-6.73-0.79-4.45-5.55-3.68-8.94-3.68"/><path class="cls-1" d="M149.28,139c-9.78-.64-19.57,1.53-29.33,1.81a119.71,119.71,0,0,1-14.31-.32c-4.92-.45-10-1.52-14.92-1.49"/><path class="cls-1" d="M146.16,83.4c1.25-1.82,3.18-2.56,3.89-4.83,0.82-2.62-.23-5-1.72-7.16-1.35-1.95-3.36-2.69-5.51-3.46-2.65-.95-5.21-2-7.94-2.73C123,62.22,111.24,59.76,99,59"/><path class="cls-1" d="M138.36,178c-1.32-.71-3.16.11-4.51,0.38-1.55.3-3.12,0.53-4.69,0.71a85.19,85.19,0,0,1-10,.51c-3.12,0-6.09-.46-9.19-0.76-1.63-.15-3.27-0.19-4.89-0.37-1.22-.14-2.72-0.81-3.84-0.11"/><path class="cls-1" d="M134,183.6c-4.68-.25-9.22,0-13.9.22-2.38.09-4.75,0.14-7.13,0.09-1.1,0-2.19-.07-3.29-0.11s-2.94.3-4-.08"/><path class="cls-1" d="M73.56,104c-1.85.08-4.45,2.28-6.14,3.09-2.43,1.16-4.86,2.31-7.3,3.46q-7.42,3.49-14.88,6.89"/><path class="cls-1" d="M106.2,181.44"/><path class="cls-1" d="M132.36,188.88a43.68,43.68,0,0,1-13.23,1.68,37.89,37.89,0,0,1-6.65-.53c-2.25-.41-4.32-1.42-6.52-1.87"/><path class="cls-1" d="M106.92,198.84c3.37,1.94,9.11,1.91,12.89,1.92,4.14,0,8.63-.23,12.55-1.68"/><path class="cls-1" d="M93.72,84.24c-2,1.79-4.41,2.93-4.18,6.11,0.2,2.7,2.36,5.08,4.59,6.41,5.25,3.14,11.83,3.12,17.72,3.94,5.23,0.73,10.3,2.27,15.5,3,2.24,0.33,14.85,1.65,14.38,4.62"/><path class="cls-1" d="M106.92,194.28c3.37,2.11,8.29,2.1,12.12,2.06a44.84,44.84,0,0,0,12.36-1.7"/><path class="cls-1" d="M132.6,204.24c-3.52,1.52-8.22,1.43-12,1.46a38.89,38.89,0,0,1-12.24-2.18"/><path class="cls-1" d="M186.36,79.2c-3.68-.13-7.36-0.06-11,0-1.8,0-3.6.06-5.4,0.1s-3.86.48-5.64,0"/><path class="cls-1" d="M94.08,97.32c-2,2.21-4.52,3.68-4.7,7.08-0.15,2.87,2.59,5.7,4.9,7a31.62,31.62,0,0,0,9.54,3.52c1.61,0.3,3.27.47,4.89,0.69s4,0.08,5.4,1"/><path class="cls-1" d="M129.24,125.28c0-2.15.33-4.56-1.34-6.2s-4.85-2.39-7.18-2.61c-2.18-.21-5.24-0.7-7.07.74-2.48,2-1.74,5.69-1.34,8.43"/><path class="cls-1" d="M121,28.44c-0.24,1.32.37,3.14,0.38,4.54q0,2.94,0,5.89c0,1.31-.79,9.07,1.61,8.35"/><path class="cls-1" d="M178.68,117.48c-3.88-1.37-7.14-3.91-10.18-6.61-1.48-1.31-2.92-2.68-4.35-4-0.87-.83-2.7-3.31-4.06-3.26"/><path class="cls-1" d="M67.92,79.2c-6.1-.51-12.22-0.52-18.24-1.68"/><path class="cls-1" d="M175.32,35.16C172,36.22,169.19,39,166.43,41c-2.93,2.1-6.69,4-9.23,6.49"/><path class="cls-1" d="M96.24,71.76c6.07,2.32,12.58,2.94,19,3.81,4.85,0.67,10.12.79,14.85,1.9a77.71,77.71,0,0,1,9.32,3.12c2.81,1.05,6.2,2.15,8.37,4.32a7.14,7.14,0,0,1,1.75,6.68,7.49,7.49,0,0,1-1.2,3c-0.71,1-2.46,1.47-2.85,2.54"/><path class="cls-1" d="M114.12,129.12c-0.47,1.86-.66,2.21-2.66,2.37a58.26,58.26,0,0,1-6,0,17.27,17.27,0,0,1-4.58-.29c-1.51-.52-1.3-1.48-1.28-2.88,0-1.7-.07-2.33,1.7-2.52a46.49,46.49,0,0,1,5.28,0c1.8,0,3.92-.25,5.65-0.07,2.45,0.27.93,1.94,2,3.21"/><path class="cls-1" d="M82.8,127.8c0.27,2.41-2.86,5.56-4,7.56-1.57,2.63-3,5.34-4.47,8"/><path class="cls-1" d="M162.72,141.24a47.63,47.63,0,0,0-4.15-7.85c-0.87-1.31-3.18-5.56-4.61-5.71"/><path class="cls-1" d="M142.8,80c-1.15-1.51-3.46-1.88-5.13-2.46a51.37,51.37,0,0,0-6.14-1.91c-3.58-.75-7.21-1.17-10.83-1.69-4-.58-8-1.24-12-1.89-1.84-.3-3.7-0.46-5.54-0.75C101,71,98.6,70.06,96.38,70c-1.39,0-3.09,1.22-4.26,2.07A6.48,6.48,0,0,0,89.42,76c-0.68,3.63,2.35,7.08,5.54,8.29,4,1.53,8.64,2,12.8,3.15a59.2,59.2,0,0,0,12,1.62c3.23,0.22,6.41.5,9.61,0.93,2.26,0.3,4.55.39,6.81,0.67,2.6,0.32,4.15,1.76,6.51,2.57"/><path class="cls-1" d="M76,30.36c0,2.41,3.17,5.19,4.46,7.17A62.57,62.57,0,0,0,86,45.24"/><path class="cls-1" d="M125.76,129.24c0.44,3.22,4.13,2.51,6.82,2.66a32.69,32.69,0,0,0,5.57-.14c1.9-.21,2.16-0.51,2.15-2.46,0-1.34.17-3.07-1.3-3.56s-4.29.25-5.86,0.19c-1.77-.07-4.24-0.71-5.93-0.2-2,.6-0.55,1.83-1.44,3.39"/><path class="cls-1" d="M114.36,129l11.28,0.12"/><path class="cls-1" d="M125.4,210.24c-1-1.07-4.42-.55-5.68-0.46-1,.07-4.28-0.11-5,0.58"/><path class="cls-1" d="M96.6,86.52c1.65,0.25,3.49,1.63,5.13,2.15a43.75,43.75,0,0,0,6,1.4c3.34,0.54,6.74.69,10.1,1.06,3.55,0.39,7.1.74,10.62,1.39,6.28,1.14,13.18,1.78,18.32,5.93,2.91,2.35,4.22,6.06,1.6,9.22s-6.85,3.17-10.29,4.89"/><path class="cls-1" d="M95.52,98.76c3.39,3.93,9.54,4.67,14.44,5.41,4,0.61,8.17.9,12.21,1.32,5,0.52,9.3,1.35,13.27,4.56,4.63,3.74,3.4,10.12,3.4,15.47"/><path class="cls-1" d="M101.4,114.6c-1.31,3.62-.69,7.34-0.6,11"/></svg>
