<svg xmlns="http://www.w3.org/2000/svg" viewBox="0 0 1600 560"><defs><style>.cls-1{fill:none;stroke:#000;stroke-linecap:round;stroke-linejoin:round;stroke-width:6px;}</style></defs><path class="cls-1" d="M294.72,386.35c1.78,16.61,4.1,33.23,4.17,50,0,4.34.58,12.95-4.76,14.76-2.72.93-6.3-.84-9.09-1.06-4.11-.32-8.3-0.08-12.42,0-3.77.07-7.57-.16-11.33,0.08-3.53.22-6.77,1.44-10.24,1.85-8.06.94-7.34-7.22-8.09-13-2.17-16.79-1-33.43-2.17-50.24"/><path class="cls-1" d="M341.86,387.71c1.68,16.18.56,32.52,1.42,48.74,0.29,5.43.42,12.68,5.78,15.78s11.94,0.36,17.54.1"/><path class="cls-1" d="M343.94,322.14c6.18,7.14,8.14,16.44,11.5,25.11,3.77,9.73,7.31,20.86,14,29"/><path class="cls-1" d="M155.12,233.85c7.4-.64,23,1.1,30.33.06"/><path class="cls-1" d="M181,179.59c-4.46,8.19-9,16.31-13.53,24.48-2.26,4.11-4.44,8.27-6.41,12.53-1.51,3.27-2.68,7.49-5.8,9.65"/><path class="cls-1" d="M260.19,183.1c7.81,6.14,15.2,12,21.92,19.42,6.17,6.78,14.28,15.09,17.73,23.71"/><path class="cls-1" d="M105.55,327c-6.79,16.77-13.49,33.59-19.89,50.51"/><path class="cls-1" d="M88.81,390.69c-12.49,1.4-25.53-1.52-38.12-1.67-6.88-.08-19.84-1.52-23,4.74-1.64,3.25-.43,9.39-0.69,12.78-0.61,8-.47,9.37.14,14.58s1,10.32,1.4,15.48c0.2,2.71,0,5.65.68,8.33S32,449.59,33,452.17"/><path class="cls-1" d="M128.12,387.7c0.9,15.12,2.34,30.24,3,45.36,0.27,5.88.6,20.12,10.15,16.76"/><path class="cls-1" d="M292.56,320.34c-4.31,7.06-5.51,15-7.7,22.83a220.86,220.86,0,0,1-10.09,27.44"/><path class="cls-1" d="M147.3,321.25a242.33,242.33,0,0,1,1.16,27.51c-0.21,9.73.89,19.22,1.67,28.93"/><path class="cls-1" d="M177.83,98c-1.63,12.06-.11,24.73,0,36.85,0.12,12.77-1.17,25.51-.63,38.29"/><path class="cls-1" d="M264.6,173.06c-7.11.92-14.71,0.54-21.89,0.81-7.66.29-15.31-.27-23-0.23-6.94,0-13.58.24-20.51-.5a90.79,90.79,0,0,0-22,0"/><path class="cls-1" d="M295.3,384.21c-4.5,2-9.63.9-14.37,1-5.72.13-11.43,1-17.14,1.31"/><path class="cls-1" d="M88.81,394.83c1.6,19.14.13,39.11,5.84,57.87"/><path class="cls-1" d="M108.23,235.5c7-1.3,14,1.2,21,1.1,7.56-.12,15.11-1.37,22.63-2.08"/><path class="cls-1" d="M224.41,95.9c8.35,0.44,16.35-1,24.71.22,3.8,0.56,7.77.93,11.52,1.76,2.31,0.51,5.44,2.57,7.62,2.57-1.43,13.9-3.56,27.83-2.68,41.83,0.35,5.48,1.36,10.87,1.2,16.37-0.14,4.77-.91,9.67-0.45,14.44"/><path class="cls-1" d="M224.41,95.9c-9.14.53-18.07-1.54-27.17-1.17-6,.24-13.52,1.84-19.36.59"/><path class="cls-1" d="M354.35,237.53a249.35,249.35,0,0,0-2,31c0.11,10-.66,19.76-1,29.74-0.12,3.56.92,7-2.54,8.5s-8.51.43-12,.07c-9.72-1-19.52-1.13-29.28-1.52-10.15-.41-20.3-1.51-30.46-1.56-3.59,0-7.49,1-11,.73-4.57-.41-5-3.51-5.17-7.54-0.39-10,.88-20.08,1.66-30,0.39-5,.79-10,1-15.08,0.21-5.45-1-10.73-.86-16.11"/><path class="cls-1" d="M354.35,237.53c-2.81-.07-5.39-0.67-6.92-0.55a33.91,33.91,0,0,1-8.12-.29c-7.93-1.36-16.84.25-24.89,0.07-17.26-.4-34.51-0.8-51.78-1"/><path class="cls-1" d="M185.46,233.91c-0.26,10.67.37,21.24-.23,31.92a102.29,102.29,0,0,0,0,16.93c0.36,3.31,1.29,6.57,1.41,9.91,0.33,9.31-6.89,8.9-14.06,8.93q-16.28.07-32.57,0.29c-4.82.07-9.65,0.13-14.46,0.27-4.18.12-8.28,1.61-12.39,1.62-6.75,0-7.11-7.53-7.13-12.79-0.09-18.07,3.64-35.86.6-53.93"/><path class="cls-1" d="M157.86,385.91c7.09-.28,14.18-0.35,21.26-0.83,4.82-.33,11.08-3.17,12.76,2.83,1.49,5.33,1.4,12.08,1.62,17.57,0.29,7,.09,14.06.55,21.09,0.33,4.95,1,10.91-1.65,15.39-2.29,3.91-6.81,4.87-11,5.45-12.24,1.69-24.71.82-37,2.28"/><path class="cls-1" d="M263.79,386.54c-6.69-.6-13.33-0.68-19.8,1.53"/><path class="cls-1" d="M396.76,451.69c-2-.09-4,0.22-6,0.19"/><path class="cls-1" d="M155.87,385.8l-27.37.89"/><path class="cls-1" d="M387.56,451.24c-6.34.3-12.65,0.63-19,1.2"/><path class="cls-1" d="M341.86,387.71c6.25,0.53,12.37-1.63,18.54-2.17s12.66-.77,18.9-0.86c5.71-.08,11.42.88,17.13,0.4,3.29-.28,8.16-1.79,11.24,0,3.44,2,2.73,7.16,2.59,10.55a164.42,164.42,0,0,0,.58,17.31c0.85,13.18,3.31,26.57,2.69,39.79-4.92-.42-9.85-0.64-14.77-0.93"/><path class="cls-1" d="M33,452.17c13.27,1.13,26.53.87,39.75,0.38,7.18-.1,14.85.26,22,0.16"/><path class="cls-1" d="M1388.4,103.35a249.35,249.35,0,0,0-2,31c0.11,10-.66,19.76-1,29.74-0.12,3.56.92,7-2.54,8.5s-8.51.43-12,.07c-9.72-1-19.52-1.13-29.28-1.52-10.15-.41-20.3-1.51-30.46-1.56-3.59,0-7.49,1-11,.73-4.57-.41-5-3.51-5.17-7.54-0.39-10,.88-20.08,1.66-30,0.39-5,.79-10,1-15.08,0.21-5.45-1-10.73-.86-16.11"/><path class="cls-1" d="M1388.4,103.35c-2.81-.07-5.39-0.67-6.92-0.55a33.91,33.91,0,0,1-8.12-.29c-7.93-1.36-16.84.25-24.89,0.07-17.26-.4-34.51-0.8-51.78-1"/><path class="cls-1" d="M1167.14,241c5.41,0.33,10.83,1.25,16.26,1s10.81-.37,16.3-0.2c5.26,0.16,10.32.82,15.55,1.34s10.58-.27,15.88-0.21c-0.1,13.28-1.19,26.53-.8,39.81,0.2,7-.08,13.95-0.16,20.93,0,3.87-1,4.55-4.63,4.29-3.41-.25-6.8-0.82-10.22-1-5.78-.24-11.43,1.33-17.22.56a95.13,95.13,0,0,0-18.64-.92,70.65,70.65,0,0,1-9.5-.2c-1.45-.11-2.91-0.24-4.36-0.34a10.4,10.4,0,0,1-2.18-.14c-1.67-.53-1.46,0-1.52-2.28-0.17-6.41-.25-12.79-0.06-19.2,0.45-15.15.41-30,1.76-45.16"/><path class="cls-1" d="M1262.33,239.26c21,1.81,41.87,4.19,62.88,5.47,1.9,0.12,1.6-.1,2,1.56a22.44,22.44,0,0,1,.11,4.38c0,2.69.13,5.38,0.18,8.07,0.11,5.84-.35,11.57,0,17.42s0.25,11.55.11,17.39c-0.12,5.23,1.05,10.35,1,15.56-11.06-.16-22.19-0.15-33.19-1.41-5.7-.66-11.36.1-17.06-0.05s-11.29-.43-16.92-0.72l-4-.21c-2.2-.1-2.22.5-2.73-1.57-0.61-2.48-.11-6-0.15-8.57-0.08-6.38-.74-12.75-0.49-19.13,0.23-6,.57-11.74.24-17.7-0.35-6.5.76-12.68,1.06-19.14"/><path class="cls-1" d="M1349.43,248c1,10.16,1.25,20.55,1.5,30.76s0.32,20.61,0,30.76c5.75,0.15,11.33-.63,17.07.08,5.91,0.74,11.72.57,17.66,0.58,11.94,0,23.79-.61,35.72-0.8-0.37-5.34.42-10.62-.07-16s-0.89-10.47-1.24-15.72c-0.37-5.5-.89-11-1.35-16.44-0.2-2.36-.27-4.72-0.32-7.09,0-1.54.7-7.2-.18-8.4-0.56-.77-6.9-0.86-7.85-1a69.94,69.94,0,0,0-7.94-.59c-5.35-.09-10.74-0.13-16.09.07s-10.69.07-16.09-.18c-5.86-.28-11.68.52-17.52,0.89"/><path class="cls-1" d="M1442.8,247.55c0,4.3.78,8.55,0.85,12.85,0.07,4.73,0,9.55-.18,14.28-0.35,9.06-1.11,18-.77,27.11,0.07,1.89.21,3.77,0.3,5.65,0,0.84-.23,2.8.12,3.55,0.48,1,.8.76,2,0.81,4.3,0.16,8.6.08,12.9,0.25,8.18,0.31,16.39.73,24.57,0.86a238.33,238.33,0,0,0,24.58-.61c3.62-.31,6.81.41,6.78-4.32,0-5-.82-9.93-0.86-14.92-0.06-9.46-.89-18.85-1.07-28.3-0.08-4.25-.27-8.51-0.39-12.76-0.05-1.77.34-5.13-.83-5.82-1.33-.78-5.08-0.25-6.55-0.32-9.23-.42-18.42-1.39-27.65-1.9-4.75-.26-9.38.16-14.12,0.2-4.91,0-9.87-.52-14.77-0.82"/><path class="cls-1" d="M1314,400.81c-16-.88-21.63-1.38-37.62-1-3.5.08-8.13-.5-11.51,0.37-2.37.61-.76-0.31-1.42,1.33a12.46,12.46,0,0,0-.21,3.23c-0.13,1.94-.27,3.88-0.35,5.82-0.33,7.68-.13,15.45-0.14,23.14s0.64,15.41.71,23.11c0,0.72-.51,3,0,3.59s2.64,0.32,3.33.36c4.37,0.28,8.75.34,13.12,0.72,8.08,0.7,16.09.36,24.15,0.88,3.93,0.25,7.78,1.11,11.73,1,2,0,4-.31,6-0.54,0.89-.1,1.77-0.22,2.66-0.3q1-.11,2-0.15,1.39,0.27.63-1.39c0.92-4,.31-9.24.07-13.35-0.26-4.56-.39-9.13-0.6-13.69a61.4,61.4,0,0,1,1-12c0.67-4.62.51-9.32,1.06-14a21.44,21.44,0,0,0-.28-7.12s-7-.56-8.6,0"/><path class="cls-1" d="M1409.29,400.57c-6.47-.41-12.87,0-19.37-0.59-6.18-.55-12.45-1.67-18.65-1.63-4.15,0-8.29,0-12.43.3-1.64.12-8,1.26-9-.41-1.23,9.88-2.85,20.16-2.49,30.12,0.37,10.21.25,20.3,1.37,30.47l0.13,1.25q-0.44,1.93,1.52,1.24c1.17,0.33,3-.12,4.21-0.19a74.56,74.56,0,0,1,8.28-.23c5.24,0.29,10.22,1.28,15.5,1.15s10.72-.19,16.08-0.43c5.88-.26,11.66.41,17.53,0.48-0.09-8.75-.92-17.47-0.85-26.23,0-4.18,1-8.28,1-12.45,0.07-4.6-1-9.14-1-13.74"/><path class="cls-1" d="M1465.91,401.9c-7.81-.56-15.67-0.74-23.5-0.68-3.67,0-7.27-.15-10.93-0.44-1.54-.12-3.53-0.54-5.06-0.25-2,.38-0.89-0.24-1.23,1.2a17.31,17.31,0,0,0,.07,3.62c0.17,7.13-.28,14.3.05,21.41,0.36,7.58-.1,15,0,22.54,0,1.69.06,3.38,0.1,5.07a12.69,12.69,0,0,0,0,3.18c0.56,1.69-1,.62,1.34,1.43,3.43,1.2,8.3,1.34,11.92,1.55,7.56,0.43,15.35-.09,22.94-0.09,3.82,0,7.64-.13,11.45-0.32,1.76-.09,3.64-0.05,5.38-0.3,2.18-.31,2.27-0.63,2.39-2.76,0.44-7.66.11-15.26-.17-22.91-0.31-8.28.29-16.59,0.12-24.88-0.06-2.77.45-6.78-3.08-7.36-1.39-.23-4.9-0.39-6,0.66"/><path class="cls-1" d="M1500.65,435.35c-0.1,4.49-.56,9-0.42,13.45,0.09,2.86-1,10.12,2.2,11.38,1.84,0.71,4.71.23,6.67,0.2,2.31,0,4.63-.11,6.94-0.1,4.86,0,9.71.21,14.56,0.09"/><path class="cls-1" d="M1535.1,461.46c9.08,0.83,17.91.18,27-.45a137.65,137.65,0,0,1-4.28-32.09c-0.06-5.24.05-10.42,0.36-15.65,0.33-5.67-.39-11.29-0.23-17"/><path class="cls-1" d="M1549.86,397.35c-14.57-1.21-29.38-2.13-44-2-1.39,0-4.21-.37-4.77.54s0.08,3.37.11,4.28c0.11,3.36.06,6.71,0,10.07-0.15,6.61-.44,13.21-0.5,19.82"/><path class="cls-1" d="M1462.39,323.49q-5.74,31.39-13.47,62.38"/><path class="cls-1" d="M1497,323.49c6.82,9.26,12.22,16.08,17.59,26.25s10.75,20.46,12.37,31.76"/><path class="cls-1" d="M1385.23,323.49c-2.18,22.54-3.12,40.16-3.35,62.8"/><path class="cls-1" d="M1292.87,318.48c-1.57,24.77-2.15,45-2,69.81"/><path class="cls-1" d="M1296.33,179.73c-26.8,6.88-51.18,20.78-75.19,34.54L1204,224.1"/><path class="cls-1" d="M1320.42,179.58l-11.73,17.11c-2.05,3-4.11,6-5.93,9.15-3.71,6.45-6.36,13.44-9,20.39"/><path class="cls-1" d="M1362.61,181.53q7.54,12.74,14.24,25.95c2.82,5.56,5.55,11.27,6.67,17.41"/><path class="cls-1" d="M1388.84,179.39c16.62,6.2,30,18.58,44.79,28.45,6.26,4.19,12.8,8,19.34,11.71l22.64,13"/><path class="cls-1" d="M658.79,41.07a514,514,0,0,1-.37,82.07"/><path class="cls-1" d="M661.42,44.57c4.81-2.47,11-1.27,15.07,2.34a18.3,18.3,0,0,1,5.59,14.64A11.54,11.54,0,0,1,681,66c-2.68,5.42-10.09,5.88-16.13,5.6"/><path class="cls-1" d="M700.21,30.09q-0.34,23.51.77,47"/><path class="cls-1" d="M729.07,42.43c-2.85,9-4.64,20.25,2.23,26.73,6.23,5.89,16.83,4.32,23.57-1s10.71-13.92,9.36-22.25a237.43,237.43,0,0,0,1.83,32.69"/><path class="cls-1" d="M813.43,49.25a16.85,16.85,0,0,0-21.35,3.82,16.85,16.85,0,0,0,1.4,21.64c2.16,2.13,5.25,3.68,8.2,2.94,2.28-.57,4-2.37,5.46-4.23a36.34,36.34,0,0,0,6.74-14.6l5.69,49.42c0.49,4.21.58,9.33-2.95,11.69-3.24,2.17-7.63.62-11-1.42-4-2.44-7.89-6.21-7.7-10.86a13.67,13.67,0,0,1,2.48-6.5,54.4,54.4,0,0,1,10.77-12.51"/><path class="cls-1" d="M841.85,45.81a44.87,44.87,0,0,0,1.33,26"/><path class="cls-1" d="M859.23,41.53a138.71,138.71,0,0,0,2.51,32.74c1.33-6.65,2.75-13.53,6.78-19s11.44-9,17.73-6.52c4.42,1.77,7.37,6.17,8.61,10.77s1,9.45.83,14.21"/><path class="cls-1" d="M926.79,46.79c-3.5-.79-7.09-1.58-10.63-1S909.1,48.56,908.1,52c-0.93,3.19.53,6.72,2.92,9s5.56,3.62,8.72,4.65c8.06,2.63,17,4.07,23.09,10-2.6,4-8,5-12.75,4.83s-9.61-1.25-14.2,0"/><path class="cls-1" d="M836.67,27.93a4.16,4.16,0,0,0,7.48,3.62,3.61,3.61,0,0,0-.36-3.93,2.8,2.8,0,0,0-3.76-.4"/><path class="cls-1" d="M432,272.18q58.43,3.52,117,2.79"/><path class="cls-1" d="M500.93,246.15a378.77,378.77,0,0,0,67.53,24.76,237.43,237.43,0,0,0-67.17,45.38"/><path class="cls-1" d="M1001,277.8c25.33,0,85.65.77,111,1.47"/><path class="cls-1" d="M1074.58,247.79a411.81,411.81,0,0,1,48.17,29.68c-12.71,15.11-32.81,23.07-43.89,39.41"/><path class="cls-1" d="M716.54,251.92c-10.78-4.63-24.12-1.47-32,7.58s-9.81,23.38-4.6,34.39a25.89,25.89,0,0,0,5.66,7.92c3.49,3.24,7.88,5.19,12.32,6.64,11.5,3.77,25.24,4.11,34.31-4.27,7.16-6.61,9.84-17.79,7.52-27.54a35.92,35.92,0,0,0-17.6-22.6"/><polygon class="cls-1" points="811.59 291.29 811.69 277.41 812.36 273.11 788.78 267.4 783.74 245.47 798.24 226.26 791.03 214.59 767.72 221.23 750.48 206.54 750.61 181.88 737.64 175.5 722.69 195.35 708.06 194.91 700.51 194.94 686.55 174.55 671.18 177.47 673.84 203.1 653.66 217.21 631.25 206.79 622.83 217.94 634.14 239.06 627.73 258.06 604.51 263.48 604.54 277.41 603.96 281.19 627.13 287.37 630.4 309.05 617.1 328.11 625.26 341.96 647.3 332.66 666.59 349.52 664.07 373.08 677.43 378.18 691.56 359.85 708.06 361.56 716.34 361.41 727.46 382.18 743.79 377.14 744.9 353.96 763.55 338.06 784.35 350.62 794.19 336.47 779.77 317.45 788.6 296.44 811.59 291.29"/><path class="cls-1" d="M885.66,314.18a36.87,36.87,0,0,0,33.42-8.28c8.73-8.06,12.72-20.78,9.89-32.14a32.92,32.92,0,0,0-24.12-23.54,42.16,42.16,0,0,0-19.45.58c-7.66,1.89-15.29,5.72-19.3,12.38-5.72,9.5-2.51,21.57,1.62,31.78,2.76,6.83,6.33,14,13,17.39"/><polygon class="cls-1" points="991.68 317.43 994.9 305.67 995.53 304.08 976.57 290.67 978.6 270.27 995.43 254.56 991.8 241.11 967.93 243.77 953.73 224.14 963.56 201.58 951.94 193.08 932.39 206.73 919.24 203.93 910.08 201.84 903.2 178.94 889.41 177.78 882.48 200.74 863.64 207.85 843.92 195.56 831.84 203.63 842.05 225.52 828 241.21 805.24 242.18 800.93 254.21 800.09 258.01 819.37 270.22 820.6 292.69 800.31 304.39 806.48 321.39 827.95 316.85 839.21 337.03 830.24 354.89 845.05 367.06 862.89 353.58 877.36 358.79 884.88 360.92 890.67 382.87 908.27 382.76 912.59 360 935.18 350.98 952.77 365.23 964.48 356.68 958.57 334.99 969.41 319.05 991.68 317.43"/></svg>