<svg xmlns="http://www.w3.org/2000/svg" viewBox="0 0 1600 560"><defs><style>.cls-1{fill:none;stroke:#000;stroke-linecap:round;stroke-linejoin:round;stroke-width:6px;}</style></defs><path class="cls-1" d="M492.37,216.81c10.46,8.23,20.65,16.59,32.07,23.44,11.84,7.11,23.91,13.87,35.41,21.53-9.27,11.4-24.64,17-37.21,23.88-7.4,4-14.77,8.16-22.12,12.28-6.64,3.72-11.76,8.95-18,13.22"/><path class="cls-1" d="M552.44,264.09c-6.83-.08-13.68,1.13-20.48,1s-12.69-1.24-19.5-.83c-16.87,1-34,.16-50.89-0.12-16.31-.27-32.53-1.35-48.82-2-7.76-.29-15.42.25-23.15,0.71-8.66.51-17.7-.68-26.15,1.3"/><path class="cls-1" d="M1212.34,258.27c-19.53,4.46-40.94,1.92-60.84,2.82-13.56.62-27.2,1.07-40.77,1.11-17.11,0-34.63-2.33-51.73-3.4"/><path class="cls-1" d="M1217.77,258.54c-4.07-5.22-10.17-6.78-15.58-10.06-5.25-3.19-10.22-6.88-15.15-10.54-9.58-7.11-18.71-17-29.3-22.34"/><path class="cls-1" d="M1217.77,258.54c-7.54,10.28-21.2,16.74-31.76,23.37q-8.71,5.47-17.66,10.57c-3.18,1.81-9.2,6.67-13.08,6.48"/><path class="cls-1" d="M1294.58,136c1.68,21.32-1.05,42.66-2.15,63.95-1.1,21.52-1.69,43.16-1.08,64.69s2.62,43.27,2.46,65-0.65,43.46-.39,65.19"/><path class="cls-1" d="M1538.51,135.45c-6.37,21.67-5.15,44.59-6.12,66.78"/><path class="cls-1" d="M1537.85,134.67c-9.68,2.27-19.44-.12-29.11-1.1s-19.23-.18-28.84.32c-20.39,1.06-40.69,3.46-61.14,3.34s-41,1-61.5-.63c-20.8-1.64-41.69-1.39-62.53-2.15"/><path class="cls-1" d="M1532.71,205.4c0.52,28.38-.41,56.59-0.94,85-0.26,13.84-.47,27.71.25,41.54,0.73,14.12,3.09,28.14,4.32,42.23,0.47,5.34,4.05,19.16-3.68,21-5.11,1.23-13.41-.82-18.75-1.1-7.28-.38-14.61-0.63-21.91-0.39-14.84.49-29.28,1.52-44.19,1.33-15.19-.19-30.37-0.05-45.56.12-36.28.41-72.56-1-108.83-.31"/><path class="cls-1" d="M1471.1,233.14c-5.6-2.33-12.24-3.12-17.58-.27s-8.43,10.19-5.23,15.34c1.77,2.86,5,4.49,8.1,5.69,5.19,2,10.79,3.24,15.31,6.48s7.69,9.34,5.4,14.41c-1.58,3.5-5.38,5.58-9.18,6.14s-7.66-.16-11.43-0.88"/><path class="cls-1" d="M1427.43,235.41c-2-2.36-6-2-8.43,0s-3.61,5-4.65,8c-1.52,4.28-2.88,9.23-.66,13.2,3.76,6.72,14.78,5.79,19,12.2,3.53,5.31-.12,13.15-6,15.67s-12.73.93-18.4-2"/><path class="cls-1" d="M1387.32,246.37c0.68-5.8-4.51-11.23-10.31-12s-11.6,2.37-15.32,6.88-5.67,10.21-7,15.9-2.12,11.42-1.08,17.07,4.15,11.12,9.16,13.94c8.17,4.6,18.9.82,25.54-5.81"/><path class="cls-1" d="M298.53,141.29c0.56,18.45-.55,37.09-0.72,55.55-0.18,19.72-.16,39.45-0.79,59.16-0.67,21-1.26,42-1.22,63,0,20.31,1.49,40.86-.35,61.11-0.64,7-1.48,11.59-9.38,11-10.06-.78-20-3-30.06-3.68-13.66-.9-27.13-1.07-40.81-1-15.18.09-30.41,1.9-45.53,3q-14.39,1.09-28.78,2.15c-7.7.56-15.48,0-23.11,0.68-4.24.4-7.53,1.3-11.67,0.68-3.94-.6-7.66.1-11.59,0.31-4.79.25-9.57-.4-14.35-0.74-1.49-.11-4.82.3-6.15-0.42-2.14-1.17-1.56-4.81-1.76-7.69-1.4-20.13-2.65-40.39-2.81-60.57-0.07-8.55.75-17.32-.25-25.83-1.2-10.23-3.6-20.2-4.53-30.5-1.83-20.29-.94-40.8-0.17-61.11,0.33-8.71-.33-17.39.32-26.12,0.59-7.91,1.59-15.59,1.66-23.53,0.05-6.07,0-12.13,0-18.2-0.05-7.37,2.67-8.25,10.2-9.9,10.28-2.26,20.12,1.2,30.31,1.94,8.67,0.62,17.2,1.79,25.9,2.27,17,0.93,34,.24,51,1.17,18.76,1,37.43,1.4,56.18,2.63,11,0.73,22.06.21,33.09,0,8-.13,17.48-1.66,25,1.57"/><path class="cls-1" d="M238.16,234.46a29.61,29.61,0,0,0-18.25.72c-1.82.67-3.69,1.64-4.56,3.37-1.47,2.91.55,6.37,2.89,8.63,5.84,5.65,13.81,8.36,21,12.1,4.26,2.21,8.48,5,10.78,9.19,3.89,7.12.48,17-6.7,20.8s-16.82,1.34-21.88-5"/><path class="cls-1" d="M189.37,237a22,22,0,0,0-10.83.44c-2.51.75-5.06,2.15-6,4.57s-0.09,5.32,1.59,7.34a22,22,0,0,0,6.3,4.68l15.24,8.72c2.72,1.56,5.63,3.33,6.76,6.24s0.23,6-.63,8.9c-1.19,4-2.75,8.39-6.52,10.11-2.39,1.09-5.16.81-7.76,0.38a18.32,18.32,0,0,1-6.77-2.19,7.4,7.4,0,0,1-3.71-5.79"/><path class="cls-1" d="M144.94,254.72c10.26,0.54,13.51-19.32,3.12-21.2-6.65-1.2-12.7,4.49-15.76,7.92-4.48,5-6.31,10.89-7.79,16.69a81.46,81.46,0,0,0-2.56,19c-0.06,4.05-.1,12.19,7.06,13.67,5.17,1.07,13.45-5,17.08-7.23,6.67-4,12.26-8.82,18.8-12.9"/><path class="cls-1" d="M893.22,409.08c2.22,20.77,5.12,41.53,5.21,62.46,0,5.42.72,16.18-6,18.45-3.4,1.16-7.87-1.05-11.37-1.32-5.14-.4-10.38-0.1-15.52,0-4.71.09-9.46-.2-14.16,0.1-4.42.28-8.46,1.8-12.81,2.31-10.07,1.18-9.17-9-10.12-16.31-2.71-21-1.28-41.78-2.71-62.8"/><path class="cls-1" d="M952.15,410.78c2.1,20.22.7,40.65,1.78,60.93,0.36,6.79.53,15.86,7.22,19.73s14.93,0.46,21.93.13"/><path class="cls-1" d="M954.75,328.81c7.72,8.92,10.18,20.55,14.38,31.38,4.71,12.16,9.13,26.07,17.46,36.28"/><path class="cls-1" d="M718.73,218.45c9.25-.79,28.74,1.38,37.92.08"/><path class="cls-1" d="M751.08,150.63c-5.57,10.24-11.3,20.39-16.92,30.6-2.83,5.14-5.55,10.34-8,15.67-1.89,4.09-3.35,9.36-7.25,12.06"/><path class="cls-1" d="M850.06,155c9.76,7.67,19,15.06,27.4,24.28,7.72,8.47,17.85,18.86,22.16,29.64"/><path class="cls-1" d="M656.77,334.84c-8.49,21-16.86,42-24.86,63.14"/><path class="cls-1" d="M635.84,414.5c-15.61,1.75-31.91-1.9-47.65-2.09-8.6-.1-24.8-1.9-28.73,5.92-2,4.06-.54,11.74-0.87,16-0.77,10-.59,11.72.18,18.23s1.28,12.9,1.75,19.35c0.25,3.39,0,7.06.85,10.41s3.45,5.82,4.7,9"/><path class="cls-1" d="M685,410.77c1.13,18.9,2.93,37.79,3.8,56.7,0.34,7.35.75,25.15,12.68,21"/><path class="cls-1" d="M890.53,326.56c-5.39,8.83-6.89,18.81-9.62,28.54-3.36,12-7.73,22.87-12.61,34.3"/><path class="cls-1" d="M708.95,327.7a302.91,302.91,0,0,1,1.45,34.39c-0.26,12.17,1.11,24,2.09,36.16"/><path class="cls-1" d="M747.11,48.58c-2,15.07-.13,30.91,0,46.07,0.15,16-1.47,31.89-.79,47.86"/><path class="cls-1" d="M855.58,142.46c-8.89,1.14-18.39.67-27.36,1-9.57.37-19.14-.34-28.71-0.29-8.68,0-17,.3-25.64-0.63a113.49,113.49,0,0,0-27.56,0"/><path class="cls-1" d="M894,406.4c-5.62,2.52-12,1.13-18,1.26-7.15.16-14.29,1.2-21.42,1.64"/><path class="cls-1" d="M635.84,419.67c2,23.93.16,48.89,7.3,72.34"/><path class="cls-1" d="M660.11,220.51c8.71-1.62,17.5,1.5,26.24,1.37,9.45-.14,18.89-1.71,28.29-2.59"/><path class="cls-1" d="M805.34,46c10.44,0.55,20.44-1.26,30.89.28,4.75,0.7,9.72,1.16,14.4,2.2,2.89,0.64,6.8,3.22,9.53,3.22-1.79,17.38-4.46,34.79-3.35,52.29,0.43,6.85,1.71,13.59,1.51,20.46-0.17,6-1.13,12.08-.56,18"/><path class="cls-1" d="M805.34,46c-11.42.66-22.59-1.92-34-1.46-7.44.3-16.9,2.3-24.2,0.74"/><path class="cls-1" d="M967.77,223.05a311.69,311.69,0,0,0-2.47,38.76c0.13,12.52-.82,24.7-1.24,37.18-0.15,4.46,1.15,8.74-3.17,10.63s-10.64.53-15,.08c-12.15-1.23-24.4-1.41-36.6-1.9-12.68-.51-25.38-1.89-38.07-2-4.48,0-9.36,1.3-13.79.91-5.72-.51-6.26-4.39-6.46-9.42-0.49-12.49,1.09-25.1,2.07-37.54,0.49-6.27,1-12.56,1.22-18.85,0.26-6.81-1.22-13.41-1.08-20.14"/><path class="cls-1" d="M967.77,223.05c-3.52-.09-6.74-0.83-8.66-0.68A42.38,42.38,0,0,1,949,222c-9.92-1.71-21.05.32-31.12,0.09-21.58-.5-43.13-1-64.72-1.29"/><path class="cls-1" d="M756.65,218.53c-0.32,13.34.47,26.55-.29,39.9-0.4,7-.8,14.16,0,21.16,0.46,4.14,1.61,8.21,1.76,12.39,0.41,11.64-8.62,11.13-17.58,11.17q-20.35.09-40.72,0.36c-6,.08-12.06.17-18.08,0.34-5.22.15-10.35,2-15.48,2-8.44,0-8.88-9.42-8.92-16-0.12-22.59,4.55-44.83.75-67.42"/><path class="cls-1" d="M722.15,408.52c8.86-.35,17.73-0.44,26.57-1,6-.41,13.85-4,16,3.54,1.87,6.67,1.75,15.09,2,22,0.36,8.79.11,17.57,0.69,26.36,0.41,6.18,1.22,13.63-2.06,19.24-2.86,4.89-8.51,6.09-13.75,6.82-15.3,2.12-30.88,1-46.2,2.85"/><path class="cls-1" d="M854.57,409.31c-8.36-.75-16.66-0.85-24.75,1.91"/><path class="cls-1" d="M1020.77,490.75c-2.51-.11-5,0.28-7.55.24"/><path class="cls-1" d="M719.66,408.39l-34.22,1.11"/><path class="cls-1" d="M1009.28,490.19c-7.92.38-15.81,0.79-23.71,1.5"/><path class="cls-1" d="M952.15,410.78c7.81,0.66,15.46-2,23.18-2.72s15.82-1,23.62-1.07c7.14-.1,14.28,1.1,21.41.5,4.11-.35,10.2-2.24,14.05,0,4.3,2.47,3.41,9,3.24,13.19a205.52,205.52,0,0,0,.73,21.64c1.06,16.47,4.14,33.22,3.36,49.73-6.15-.52-12.31-0.8-18.47-1.16"/><path class="cls-1" d="M566.08,491.35c16.59,1.41,33.16,1.09,49.69.47,9-.13,18.56.33,27.54,0.2"/></svg>
